# xmcd
#
# Track frame offsets:
#	150
#	13752
#	31130
#	48026
#	65330
#	80331
#	95018
#	109156
#	125871
#	142216
#	157025
#
# Disc length: 2276 seconds
#
# Revision: 1
# Processed by: cddbd v1.5.2PL0 Copyright (c) Steve Scherf et al.
# Submitted via: audiograbber 1.83.01
#
DISCID=9508e20b
DTITLE=Rasmusen, Carmen - Nothin' like the summer
DYEAR=2007
DGENRE=Country
TTITLE0=Happy
TTITLE1=Love will wait
TTITLE2=Stranded
TTITLE3=Nothin' like the summer
TTITLE4=Keep me forever falling
TTITLE5=Shine
TTITLE6=Spend that money
TTITLE7=Silly me
TTITLE8=Your love
TTITLE9=You scare me to death
TTITLE10=Gather me up
EXTD=
EXTT0=
EXTT1=
EXTT2=
EXTT3=
EXTT4=
EXTT5=
EXTT6=
EXTT7=
EXTT8=
EXTT9=
EXTT10=
PLAYORDER=
